<?xml version="1.0" encoding="UTF-8"?>
<svg id="_レイヤー_2" data-name="レイヤー 2" xmlns="http://www.w3.org/2000/svg" xmlns:xlink="http://www.w3.org/1999/xlink" viewBox="0 0 395.03 82.41">
  <defs>
    <style>
      .cls-1 {
        fill: url(#radial-gradient-5);
      }

      .cls-2 {
        fill: url(#radial-gradient);
      }

      .cls-3 {
        fill: url(#radial-gradient-3);
      }

      .cls-4 {
        fill: #231815;
      }

      .cls-5 {
        fill: url(#radial-gradient-2);
      }

      .cls-6 {
        fill: url(#radial-gradient-4);
      }

      .cls-7 {
        fill: url(#radial-gradient-6);
      }

      .cls-8 {
        fill: url(#radial-gradient-7);
      }

      .cls-9 {
        fill: url(#linear-gradient);
      }
    </style>
    <radialGradient id="radial-gradient" cx="74.99" cy="22.82" fx="74.99" fy="22.82" r="11.13" gradientUnits="userSpaceOnUse">
      <stop offset="0" stop-color="#45bff0"/>
      <stop offset=".22" stop-color="#00b4ed"/>
      <stop offset=".46" stop-color="#008bd1"/>
      <stop offset=".72" stop-color="#0066b5"/>
      <stop offset="1" stop-color="#004494"/>
    </radialGradient>
    <radialGradient id="radial-gradient-2" cx="24.4" cy="6.94" fx="24.4" fy="6.94" r="48.74" xlink:href="#radial-gradient"/>
    <radialGradient id="radial-gradient-3" cx="87.59" cy="56.09" fx="87.59" fy="56.09" r="43.84" xlink:href="#radial-gradient"/>
    <linearGradient id="linear-gradient" x1="43.39" y1="59.05" x2="83.32" y2="62.88" gradientUnits="userSpaceOnUse">
      <stop offset=".69" stop-color="#feffff" stop-opacity="0"/>
      <stop offset=".74" stop-color="#feffff" stop-opacity=".01"/>
      <stop offset=".78" stop-color="#feffff" stop-opacity=".05"/>
      <stop offset=".82" stop-color="#feffff" stop-opacity=".12"/>
      <stop offset=".85" stop-color="#feffff" stop-opacity=".21"/>
      <stop offset=".89" stop-color="#feffff" stop-opacity=".33"/>
      <stop offset=".92" stop-color="#feffff" stop-opacity=".48"/>
      <stop offset=".95" stop-color="#feffff" stop-opacity=".66"/>
      <stop offset=".98" stop-color="#feffff" stop-opacity=".86"/>
      <stop offset="1" stop-color="#feffff" stop-opacity=".98"/>
    </linearGradient>
    <radialGradient id="radial-gradient-4" cx="29.35" cy="35.68" fx="29.35" fy="35.68" r="44.44" xlink:href="#radial-gradient"/>
    <radialGradient id="radial-gradient-5" cx="42.41" cy="39.02" fx="42.41" fy="39.02" r="35.5" gradientUnits="userSpaceOnUse">
      <stop offset="0" stop-color="#dae243"/>
      <stop offset=".29" stop-color="#a8cd31"/>
      <stop offset=".64" stop-color="#75bc2a"/>
      <stop offset="1" stop-color="#31a938"/>
    </radialGradient>
    <radialGradient id="radial-gradient-6" cx="88.13" cy="14.89" fx="88.13" fy="14.89" r="8" xlink:href="#radial-gradient-5"/>
    <radialGradient id="radial-gradient-7" cx="74.99" cy="22.82" fx="74.99" fy="22.82" r="11.13" gradientUnits="userSpaceOnUse">
      <stop offset="0" stop-color="#fff" stop-opacity=".86"/>
      <stop offset="0" stop-color="#fff" stop-opacity=".85"/>
      <stop offset=".07" stop-color="#fff" stop-opacity=".65"/>
      <stop offset=".15" stop-color="#fff" stop-opacity=".48"/>
      <stop offset=".22" stop-color="#fff" stop-opacity=".33"/>
      <stop offset=".3" stop-color="#fff" stop-opacity=".21"/>
      <stop offset=".38" stop-color="#fff" stop-opacity=".12"/>
      <stop offset=".47" stop-color="#fff" stop-opacity=".05"/>
      <stop offset=".56" stop-color="#fff" stop-opacity=".01"/>
      <stop offset=".68" stop-color="#fff" stop-opacity="0"/>
    </radialGradient>
  </defs>
  <g id="_レイヤー_1-2" data-name="レイヤー 1">
    <g>
      <path class="cls-2" d="M79.11,24.85c.05,3.24-2.89,6.51-6.57,7.31-3.69.8-6.72-1.18-6.77-4.42-.05-3.24,2.89-6.52,6.58-7.32,3.68-.8,6.71,1.18,6.76,4.42Z"/>
      <path class="cls-5" d="M83.43,9.76s-35.89,3.7-55.23,14.38c-21.9,12.09-22.2,23.1-11.08,27.02,0,0-15.71-.55-17.02-11.99-1.22-10.71,9.2-19.62,18.36-25.5C27.6,7.78,40.46,2.66,54.61,0c0,0,17.06,4.53,28.82,9.76Z"/>
      <path class="cls-3" d="M81.83,58.89c4.97-9.71,1.03-17.7-7.61-20.94-8.64-3.24-20.51-1.94-20.51-1.94,10.14,1.29,14.89,4.53,15.76,10.58.71,4.99-2.81,10.8-15.76,19.86-12.95,9.07-41.45,15.97-41.45,15.97,0,0,27.73-.54,48.64-1.71,10.09-6.77,17.11-14.35,20.92-21.82Z"/>
      <path class="cls-9" d="M20.72,81.06c9.49-2.75,24.78-7.8,33.47-13.88,12.21-8.55,17.05-14.79,16.19-20.86-.65-4.57-3.34-7.67-8.46-9.59,3.66.15,8.07.67,11.82,2.08,4.09,1.53,7.05,4.22,8.35,7.56,1.36,3.5.91,7.62-1.3,11.93-3.84,7.52-10.87,14.87-20.34,21.27-13.5.75-29.92,1.24-39.72,1.49Z"/>
      <g>
        <path class="cls-6" d="M61.26,14.85c-10.37,5.61-26.82,14.13-40.63,31.83-11.32,14.5-14.18,28.89-14.71,33.18,4.21-.82,14.25-2.96,25.12-6.63,0-8.88.25-16.78,7.12-30.11,7.12-13.82,23.1-28.28,23.1-28.28Z"/>
        <path class="cls-1" d="M48.96,43.35c3.08-11.8,10.57-23.96,10.57-23.96,0,0-11.69,11.85-17.7,24.61-5.61,11.93-5.24,23.29-4.9,27.13,3.93-1.51,7.85-3.21,11.54-5.12-.73-2.65-2.53-11.12.49-22.65Z"/>
      </g>
      <path class="cls-7" d="M91.1,16.34c.04,2.33-2.08,4.69-4.73,5.26-2.65.58-4.83-.85-4.87-3.18-.04-2.33,2.08-4.68,4.73-5.26,2.65-.58,4.83.85,4.87,3.18Z"/>
      <g>
        <g>
          <path class="cls-4" d="M105.91,25.86h28.15v3.46h-12.28v27.52h-3.62v-27.52h-12.26v-3.46Z"/>
          <path class="cls-4" d="M155.46,35.49c1.91,0,3.55.71,4.91,2.14,1.37,1.43,2.04,3.15,2.04,5.17v6.72c0,2.01-.67,3.74-2.04,5.17-1.36,1.43-2.99,2.15-4.91,2.15h-15c-1.91,0-3.55-.72-4.91-2.15-1.36-1.43-2.04-3.15-2.04-5.17v-6.72c0-2.01.68-3.74,2.04-5.17,1.36-1.43,3-2.14,4.91-2.14h15ZM158.94,42.8c0-1.06-.35-1.97-1.04-2.71-.71-.74-1.56-1.12-2.54-1.12h-14.79c-1,0-1.84.37-2.54,1.12-.71.74-1.07,1.65-1.07,2.71v6.72c0,1.07.36,1.97,1.07,2.71.7.76,1.54,1.14,2.54,1.14h14.79c.98,0,1.82-.38,2.54-1.14.7-.74,1.04-1.65,1.04-2.71v-6.72Z"/>
          <path class="cls-4" d="M171.09,35.49h7.18v3.48h-7.18v10.49c0,1.08.36,2,1.08,2.75.74.77,1.61,1.16,2.62,1.16h3.47v3.46h-3.47c-1.93,0-3.58-.72-4.95-2.17-1.37-1.43-2.06-3.16-2.06-5.21v-21.77h3.3v7.8Z"/>
          <path class="cls-4" d="M387.85,35.49h7.17v3.48h-7.17v10.49c0,1.08.36,2,1.08,2.75.73.77,1.61,1.16,2.62,1.16h3.47v3.46h-3.47c-1.93,0-3.58-.72-4.95-2.17-1.38-1.43-2.06-3.16-2.06-5.21v-21.77h3.31v7.8Z"/>
          <path class="cls-4" d="M211.94,50.2c-.01,2.01-.65,3.63-1.91,4.84-1.27,1.2-2.98,1.79-5.1,1.79h-14.87c-2.09,0-3.78-.58-5.07-1.73-1.29-1.17-1.94-2.7-1.94-4.6v-.31c0-1.9.65-3.43,1.94-4.6,1.29-1.17,2.98-1.75,5.07-1.75h14.87c1.39,0,2.62.28,3.7.83v-2.15c0-.89-.35-1.69-1.06-2.41-.75-.77-1.63-1.16-2.64-1.16h-19.57v-3.48h19.57c1.9,0,3.54.7,4.94,2.1,1.38,1.39,2.07,3.03,2.07,4.95v7.66ZM204.82,53.37c2.43,0,3.65-1.06,3.65-3.2,0-1.11-.47-1.9-1.41-2.38-.62-.3-1.36-.46-2.23-.46h-14.65c-.89,0-1.64.16-2.24.46-.94.48-1.41,1.29-1.41,2.41v.31c0,1.12.47,1.93,1.41,2.41.62.31,1.36.46,2.24.46h14.65Z"/>
          <path class="cls-4" d="M220.44,49.46c0,1.08.36,2,1.08,2.75.74.77,1.62,1.16,2.64,1.16h3.46v3.46h-3.46c-1.94,0-3.59-.72-4.97-2.17-1.37-1.43-2.06-3.16-2.06-5.21v-23.6h3.3v23.6Z"/>
          <path class="cls-4" d="M268.63,39.1c4.18,0,6.48,2.16,6.48,6.61v4.54c0,4.56-3.08,6.59-6.48,6.59h-23.55v-3.46h23.24c1.73,0,3.2-1.01,3.2-3.13v-4.54c0-2.01-1.4-3.13-3.2-3.13h-16.58c-4.18,0-6.66-2.42-6.66-6.06v-4.56c0-3.42,2.74-6.08,6.66-6.08h23.37v3.48h-23.11c-1.93,0-3.37,1.16-3.37,2.97v4.19c0,1.4,1.19,2.58,3.37,2.58h16.63Z"/>
          <path class="cls-4" d="M360.95,42.8c0-2.01.68-3.74,2.03-5.17,1.36-1.43,3-2.14,4.91-2.14h11.56v3.48h-11.56c-1,0-1.86.37-2.58,1.12-.71.74-1.06,1.65-1.06,2.71v14.03h-3.3v-14.03Z"/>
        </g>
        <path class="cls-4" d="M320.44,37.63c-1.37-1.43-3.02-2.14-4.94-2.14h-7.98c-2.43,0-4.87,1.04-6.01,3.16-1.15-2.12-3.59-3.16-6.02-3.16h-7.98c-1.93,0-3.58.71-4.95,2.14-1.37,1.45-2.06,3.19-2.06,5.23v13.97h3.31v-13.97c0-1.08.36-2,1.08-2.76.72-.77,1.59-1.16,2.62-1.16h7.98c1.16,0,2.55.38,3.28,1.14.71.77,1.08,1.69,1.08,2.76v13.99h3.33v-13.99c0-1.07.36-1.99,1.08-2.76.72-.76,2.11-1.14,3.27-1.14h7.98c1.02,0,1.9.39,2.62,1.16.72.76,1.08,1.68,1.08,2.76v13.97h3.31v-13.97c0-2.04-.69-3.79-2.06-5.23Z"/>
        <path class="cls-4" d="M356.3,50.2c-.01,2.01-.65,3.63-1.91,4.84-1.28,1.2-2.97,1.79-5.09,1.79h-14.87c-2.1,0-3.79-.58-5.08-1.73-1.29-1.17-1.93-2.7-1.93-4.6v-.31c0-1.9.64-3.43,1.93-4.6,1.29-1.17,2.98-1.75,5.08-1.75h14.87c1.38,0,2.62.28,3.7.83v-2.15c0-.89-.35-1.69-1.06-2.41-.75-.77-1.63-1.16-2.64-1.16h-19.58v-3.48h19.58c1.89,0,3.54.7,4.92,2.1,1.39,1.39,2.08,3.03,2.08,4.95v7.66ZM349.18,53.37c2.43,0,3.64-1.06,3.64-3.2,0-1.11-.47-1.9-1.41-2.38-.62-.3-1.36-.46-2.23-.46h-14.66c-.89,0-1.63.16-2.23.46-.95.48-1.41,1.29-1.41,2.41v.31c0,1.12.47,1.93,1.41,2.41.62.31,1.36.46,2.23.46h14.66Z"/>
        <g>
          <path class="cls-4" d="M338.62,76.49c-.72.3-2.13.61-3.94.61-4.06,0-7.33-2.28-7.33-6.92s3.17-7.17,7.79-7.17c1.88,0,2.98.34,3.48.56l-.45,1.26c-.73-.31-1.74-.56-2.98-.56-3.58,0-6.03,2.08-6.03,5.86s2.23,5.72,5.92,5.72c1.2,0,2.38-.23,3.17-.56l.37,1.21Z"/>
          <path class="cls-4" d="M350.67,71.92c0,3.65-2.78,5.19-5.28,5.19-2.9,0-5.14-1.89-5.14-5.05,0-3.34,2.4-5.2,5.28-5.2,3.09,0,5.14,2.05,5.14,5.05ZM345.47,68.04c-2.44,0-3.46,2.08-3.46,3.97,0,2.18,1.39,3.94,3.42,3.94s3.48-1.76,3.48-3.97c0-1.75-.97-3.94-3.44-3.94Z"/>
          <path class="cls-4" d="M352.81,75.98c0-.68.52-1.17,1.24-1.17s1.22.48,1.22,1.17c0,.65-.47,1.13-1.25,1.13s-1.22-.54-1.22-1.13Z"/>
          <path class="cls-4" d="M359.91,74.54c-.52,1.65-1.53,3.92-2.09,4.76l-1.26.12c.48-1.1,1.1-3.27,1.35-4.69l2.01-.2Z"/>
          <path class="cls-4" d="M370.67,76.9h-8.24v-13.7h1.72v12.42h6.53v1.28Z"/>
          <path class="cls-4" d="M373.3,65.32l1.7-.5v2.28h2.92v1.17h-2.92v5.66c0,1.24.44,1.92,1.53,1.92.52,0,.87-.05,1.16-.14l.11,1.15c-.38.14-.96.23-1.68.23-2.74,0-2.82-2.16-2.82-3.2v-5.63h-1.74v-1.17h1.74v-1.78Z"/>
          <path class="cls-4" d="M389.3,74.47c0,.79.04,1.76.08,2.43h-1.54l-.08-1.67h-.06c-.58,1.03-1.86,1.89-3.69,1.89-2.61,0-4.64-1.96-4.64-4.98,0-3.31,2.24-5.25,4.87-5.25,1.65,0,2.78.7,3.29,1.51h.04v-5.88h1.72v11.95ZM387.58,71.02c0-1.96-1.6-2.93-3.05-2.93-2.13,0-3.39,1.73-3.39,3.97,0,2.07,1.12,3.83,3.33,3.83,1.86,0,3.11-1.42,3.11-2.99v-1.89Z"/>
          <path class="cls-4" d="M392.22,75.98c0-.68.52-1.17,1.24-1.17s1.22.48,1.22,1.17c0,.65-.47,1.13-1.25,1.13s-1.22-.54-1.22-1.13Z"/>
        </g>
      </g>
      <path class="cls-8" d="M79.11,24.85c.05,3.24-2.89,6.51-6.57,7.31-3.69.8-6.72-1.18-6.77-4.42-.05-3.24,2.89-6.52,6.58-7.32,3.68-.8,6.71,1.18,6.76,4.42Z"/>
    </g>
  </g>
</svg>